NotoSansDisplay-CondensedSemiBoldItalic.ufo
<glyph name="uni0191" format="2">
  <advance width="501"/>
  <unicode hex="0191"/>
  <anchor x="101" y="0" name="bottom"/>
  <anchor x="422" y="714" name="top"/>
  <anchor x="588" y="714" name="topright"/>
  <outline>
    <contour>
      <point x="116" y="-15" type="curve" smooth="yes"/>
      <point x="224" y="-15"/>
      <point x="274" y="50"/>
      <point x="294" y="147" type="curve" smooth="yes"/>
      <point x="330" y="318" type="line"/>
      <point x="471" y="318" type="line"/>
      <point x="495" y="427" type="line"/>
      <point x="353" y="427" type="line"/>
      <point x="390" y="605" type="line"/>
      <point x="544" y="605" type="line"/>
      <point x="568" y="714" type="line"/>
      <point x="289" y="714" type="line"/>
      <point x="171" y="154" type="line" smooth="yes"/>
      <point x="163" y="117"/>
      <point x="148" y="88"/>
      <point x="117" y="88" type="curve" smooth="yes"/>
      <point x="93" y="88"/>
      <point x="78" y="109"/>
      <point x="78" y="139" type="curve" smooth="yes"/>
      <point x="78" y="157"/>
      <point x="82" y="178"/>
      <point x="88" y="192" type="curve"/>
      <point x="-4" y="227" type="line"/>
      <point x="-19" y="200"/>
      <point x="-26" y="170"/>
      <point x="-26" y="130" type="curve" smooth="yes"/>
      <point x="-26" y="42"/>
      <point x="31" y="-15"/>
    </contour>
  </outline>
</glyph>
<glyph name="florin" format="2">
  <advance width="398"/>
  <unicode hex="0192"/>
  <anchor x="116" y="0" name="bottom"/>
  <anchor x="420" y="765" name="top"/>
  <anchor x="525" y="765" name="topright"/>
  <outline>
    <contour>
      <point x="118" y="-15" type="curve" smooth="yes"/>
      <point x="214" y="-15"/>
      <point x="264" y="43"/>
      <point x="287" y="154" type="curve" smooth="yes"/>
      <point x="348" y="444" type="line"/>
      <point x="425" y="444" type="line"/>
      <point x="446" y="545" type="line"/>
      <point x="370" y="545" type="line"/>
      <point x="380" y="590" type="line" smooth="yes"/>
      <point x="390" y="634"/>
      <point x="401" y="663"/>
      <point x="431" y="663" type="curve" smooth="yes"/>
      <point x="443" y="663"/>
      <point x="459" y="658"/>
      <point x="472" y="651" type="curve"/>
      <point x="514" y="743" type="line"/>
      <point x="482" y="759"/>
      <point x="449" y="765"/>
      <point x="417" y="765" type="curve" smooth="yes"/>
      <point x="309" y="765"/>
      <point x="278" y="677"/>
      <point x="259" y="589" type="curve" smooth="yes"/>
      <point x="249" y="543" type="line"/>
      <point x="187" y="508" type="line"/>
      <point x="174" y="444" type="line"/>
      <point x="228" y="444" type="line"/>
      <point x="167" y="154" type="line" smooth="yes"/>
      <point x="159" y="115"/>
      <point x="144" y="88"/>
      <point x="117" y="88" type="curve" smooth="yes"/>
      <point x="91" y="88"/>
      <point x="80" y="110"/>
      <point x="80" y="136" type="curve" smooth="yes"/>
      <point x="80" y="153"/>
      <point x="83" y="167"/>
      <point x="88" y="182" type="curve"/>
      <point x="-9" y="208" type="line"/>
      <point x="-19" y="184"/>
      <point x="-24" y="159"/>
      <point x="-24" y="130" type="curve" smooth="yes"/>
      <point x="-24" y="49"/>
      <point x="19" y="-15"/>
    </contour>
  </outline>
</glyph>
<glyph name="uni023A" format="2">
  <advance width="464"/>
  <unicode hex="023A"/>
  <anchor x="161" y="-75" name="bottom"/>
  <anchor x="333" y="760" name="top"/>
  <anchor x="541" y="714" name="topright"/>
  <outline>
    <contour>
      <point x="81" y="-75" type="line"/>
      <point x="150" y="-75" type="line"/>
      <point x="467" y="760" type="line"/>
      <point x="399" y="760" type="line"/>
    </contour>
    <component base="A"/>
  </outline>
</glyph>
<glyph name="hungarumlaut" format="2">
  <advance width="424"/>
  <unicode hex="02DD"/>
  <outline>
    <contour>
      <point x="273" y="606" type="line"/>
      <point x="338" y="606" type="line"/>
      <point x="386" y="645"/>
      <point x="461" y="719"/>
      <point x="487" y="758" type="curve"/>
      <point x="488" y="766" type="line"/>
      <point x="374" y="766" type="line"/>
      <point x="357" y="735"/>
      <point x="323" y="683"/>
      <point x="275" y="617" type="curve"/>
    </contour>
    <contour>
      <point x="111" y="606" type="line"/>
      <point x="170" y="606" type="line"/>
      <point x="226" y="648"/>
      <point x="301" y="718"/>
      <point x="325" y="758" type="curve"/>
      <point x="326" y="766" type="line"/>
      <point x="212" y="766" type="line"/>
      <point x="196" y="736"/>
      <point x="161" y="684"/>
      <point x="113" y="617" type="curve"/>
    </contour>
  </outline>
</glyph>
<glyph name="tildedoublecomb" format="2">
  <unicode hex="0360"/>
  <anchor x="263" y="530" name="_top"/>
  <anchor x="301" y="753" name="top"/>
  <outline>
    <contour>
      <point x="-16" y="607" type="curve"/>
      <point x="52" y="607" type="line"/>
      <point x="67" y="647"/>
      <point x="92" y="664"/>
      <point x="128" y="664" type="curve" smooth="yes"/>
      <point x="237" y="664"/>
      <point x="319" y="608"/>
      <point x="429" y="608" type="curve" smooth="yes"/>
      <point x="513" y="608"/>
      <point x="579" y="654"/>
      <point x="607" y="753" type="curve"/>
      <point x="540" y="753" type="line"/>
      <point x="528" y="717"/>
      <point x="506" y="696"/>
      <point x="469" y="696" type="curve" smooth="yes"/>
      <point x="354" y="696"/>
      <point x="279" y="752"/>
      <point x="158" y="752" type="curve" smooth="yes"/>
      <point x="79" y="752"/>
      <point x="12" y="706"/>
    </contour>
  </outline>
</glyph>
<glyph name="arrowdoublerightbelowcomb" format="2">
  <unicode hex="0362"/>
  <anchor x="234" y="20" name="_bottom"/>
  <anchor x="182" y="-224" name="bottom"/>
  <outline>
    <contour>
      <point x="389" y="-224" type="line"/>
      <point x="498" y="-127" type="line"/>
      <point x="390" y="-30" type="line"/>
      <point x="389" y="-96" type="line"/>
      <point x="-92" y="-96" type="line"/>
      <point x="-92" y="-158" type="line"/>
      <point x="389" y="-158" type="line"/>
    </contour>
  </outline>
</glyph>
<glyph name="uni0463" format="2">
  <advance width="438"/>
  <unicode hex="0463"/>
  <anchor x="165" y="0" name="bottom"/>
  <anchor x="301" y="644" name="top"/>
  <outline>
    <contour>
      <point x="187" y="-10" type="curve" smooth="yes"/>
      <point x="314" y="-10"/>
      <point x="394" y="72"/>
      <point x="394" y="193" type="curve" smooth="yes"/>
      <point x="394" y="286"/>
      <point x="344" y="332"/>
      <point x="250" y="332" type="curve" smooth="yes"/>
      <point x="233" y="332"/>
      <point x="217" y="331"/>
      <point x="208" y="329" type="curve"/>
      <point x="235" y="457" type="line"/>
      <point x="327" y="457" type="line"/>
      <point x="346" y="545" type="line"/>
      <point x="254" y="545" type="line"/>
      <point x="276" y="644" type="line"/>
      <point x="156" y="644" type="line"/>
      <point x="134" y="545" type="line"/>
      <point x="58" y="545" type="line"/>
      <point x="39" y="457" type="line"/>
      <point x="114" y="457" type="line"/>
      <point x="58" y="190" type="line" smooth="yes"/>
      <point x="53" y="165"/>
      <point x="50" y="139"/>
      <point x="50" y="117" type="curve" smooth="yes"/>
      <point x="50" y="38"/>
      <point x="91" y="-10"/>
    </contour>
    <contour>
      <point x="204" y="82" type="curve" smooth="yes"/>
      <point x="181" y="82"/>
      <point x="168" y="98"/>
      <point x="168" y="127" type="curve" smooth="yes"/>
      <point x="168" y="148"/>
      <point x="175" y="189"/>
      <point x="188" y="236" type="curve"/>
      <point x="200" y="238"/>
      <point x="214" y="240"/>
      <point x="226" y="240" type="curve" smooth="yes"/>
      <point x="257" y="240"/>
      <point x="271" y="222"/>
      <point x="271" y="184" type="curve" smooth="yes"/>
      <point x="271" y="146"/>
      <point x="252" y="82"/>
    </contour>
  </outline>
</glyph>
<glyph name="uni0488" format="2">
  <advance width="889"/>
  <unicode hex="0488"/>
  <outline>
    <contour>
      <point x="574" y="458" type="curve"/>
      <point x="623" y="458" type="line"/>
      <point x="626" y="485"/>
      <point x="646" y="498"/>
      <point x="683" y="498" type="curve" smooth="yes"/>
      <point x="726" y="498"/>
      <point x="741" y="485"/>
      <point x="744" y="458" type="curve"/>
      <point x="792" y="458" type="line"/>
      <point x="787" y="523"/>
      <point x="743" y="557"/>
      <point x="684" y="557" type="curve" smooth="yes"/>
      <point x="623" y="557"/>
      <point x="578" y="518"/>
    </contour>
    <contour>
      <point x="74" y="-20" type="curve"/>
      <point x="122" y="-20" type="line"/>
      <point x="125" y="7"/>
      <point x="146" y="20"/>
      <point x="183" y="20" type="curve" smooth="yes"/>
      <point x="226" y="20"/>
      <point x="241" y="6"/>
      <point x="244" y="-20" type="curve"/>
      <point x="291" y="-20" type="line"/>
      <point x="289" y="42"/>
      <point x="248" y="79"/>
      <point x="184" y="79" type="curve" smooth="yes"/>
      <point x="123" y="79"/>
      <point x="77" y="40"/>
    </contour>
    <contour>
      <point x="319" y="-156" type="curve"/>
      <point x="368" y="-156" type="line"/>
      <point x="370" y="-129"/>
      <point x="390" y="-116"/>
      <point x="427" y="-116" type="curve" smooth="yes"/>
      <point x="471" y="-116"/>
      <point x="486" y="-129"/>
      <point x="489" y="-156" type="curve"/>
      <point x="537" y="-156" type="line"/>
      <point x="533" y="-92"/>
      <point x="487" y="-57"/>
      <point x="429" y="-57" type="curve" smooth="yes"/>
      <point x="368" y="-57"/>
      <point x="322" y="-95"/>
    </contour>
    <contour>
      <point x="5" y="222" type="curve"/>
      <point x="54" y="222" type="line"/>
      <point x="56" y="249"/>
      <point x="76" y="261"/>
      <point x="114" y="261" type="curve" smooth="yes"/>
      <point x="157" y="261"/>
      <point x="172" y="249"/>
      <point x="175" y="222" type="curve"/>
      <point x="222" y="222" type="line"/>
      <point x="220" y="283"/>
      <point x="180" y="321"/>
      <point x="116" y="321" type="curve" smooth="yes"/>
      <point x="55" y="321"/>
      <point x="8" y="282"/>
    </contour>
    <contour>
      <point x="76" y="458" type="curve"/>
      <point x="125" y="458" type="line"/>
      <point x="126" y="485"/>
      <point x="147" y="498"/>
      <point x="185" y="498" type="curve" smooth="yes"/>
      <point x="228" y="498"/>
      <point x="243" y="485"/>
      <point x="246" y="458" type="curve"/>
      <point x="293" y="458" type="line"/>
      <point x="291" y="520"/>
      <point x="250" y="557"/>
      <point x="187" y="557" type="curve" smooth="yes"/>
      <point x="128" y="557"/>
      <point x="79" y="520"/>
    </contour>
    <contour>
      <point x="572" y="-20" type="curve"/>
      <point x="621" y="-20" type="line"/>
      <point x="624" y="7"/>
      <point x="644" y="20"/>
      <point x="681" y="20" type="curve" smooth="yes"/>
      <point x="724" y="20"/>
      <point x="739" y="6"/>
      <point x="742" y="-20" type="curve"/>
      <point x="790" y="-20" type="line"/>
      <point x="785" y="45"/>
      <point x="741" y="79"/>
      <point x="682" y="79" type="curve" smooth="yes"/>
      <point x="621" y="79"/>
      <point x="576" y="40"/>
    </contour>
    <contour>
      <point x="644" y="222" type="curve"/>
      <point x="693" y="222" type="line"/>
      <point x="695" y="249"/>
      <point x="715" y="261"/>
      <point x="754" y="261" type="curve" smooth="yes"/>
      <point x="796" y="261"/>
      <point x="811" y="249"/>
      <point x="814" y="222" type="curve"/>
      <point x="862" y="222" type="line"/>
      <point x="859" y="283"/>
      <point x="820" y="321"/>
      <point x="755" y="321" type="curve" smooth="yes"/>
      <point x="694" y="321"/>
      <point x="647" y="282"/>
    </contour>
    <contour>
      <point x="322" y="597" type="curve"/>
      <point x="371" y="597" type="line"/>
      <point x="374" y="624"/>
      <point x="393" y="637"/>
      <point x="431" y="637" type="curve" smooth="yes"/>
      <point x="474" y="637"/>
      <point x="489" y="624"/>
      <point x="492" y="597" type="curve"/>
      <point x="540" y="597" type="line"/>
      <point x="537" y="661"/>
      <point x="495" y="696"/>
      <point x="432" y="696" type="curve" smooth="yes"/>
      <point x="374" y="696"/>
      <point x="328" y="659"/>
    </contour>
  </outline>
</glyph>
<glyph name="uni0489" format="2">
  <advance width="886"/>
  <unicode hex="0489"/>
  <outline>
    <contour>
      <point x="653" y="454" type="line"/>
      <point x="693" y="484"/>
      <point x="754" y="531"/>
      <point x="790" y="553" type="curve"/>
      <point x="750" y="592" type="line"/>
      <point x="699" y="576"/>
      <point x="641" y="549"/>
      <point x="598" y="522" type="curve"/>
      <point x="595" y="514" type="line"/>
    </contour>
    <contour>
      <point x="127" y="-53" type="line"/>
      <point x="179" y="-36"/>
      <point x="238" y="-9"/>
      <point x="280" y="17" type="curve"/>
      <point x="282" y="26" type="line"/>
      <point x="224" y="85" type="line"/>
      <point x="180" y="49"/>
      <point x="132" y="17"/>
      <point x="86" y="-11" type="curve"/>
    </contour>
    <contour>
      <point x="172" y="208" type="curve"/>
      <point x="179" y="211" type="line"/>
      <point x="179" y="295" type="line"/>
      <point x="130" y="301"/>
      <point x="74" y="309"/>
      <point x="15" y="328" type="curve"/>
      <point x="15" y="268" type="line"/>
      <point x="62" y="244"/>
      <point x="123" y="219"/>
    </contour>
    <contour>
      <point x="381" y="-184" type="curve"/>
      <point x="439" y="-184" type="line"/>
      <point x="462" y="-137"/>
      <point x="487" y="-73"/>
      <point x="499" y="-25" type="curve"/>
      <point x="496" y="-17" type="line"/>
      <point x="412" y="-17" type="line"/>
      <point x="408" y="-51"/>
      <point x="397" y="-109"/>
    </contour>
    <contour>
      <point x="709" y="-90" type="curve"/>
      <point x="750" y="-50" type="line"/>
      <point x="735" y="-1"/>
      <point x="707" y="63"/>
      <point x="682" y="105" type="curve"/>
      <point x="674" y="108" type="line"/>
      <point x="615" y="49" type="line"/>
      <point x="638" y="18"/>
      <point x="672" y="-31"/>
    </contour>
    <contour>
      <point x="202" y="431" type="line"/>
      <point x="261" y="491" type="line"/>
      <point x="237" y="520"/>
      <point x="195" y="579"/>
      <point x="167" y="630" type="curve"/>
      <point x="126" y="590" type="line"/>
      <point x="143" y="540"/>
      <point x="170" y="476"/>
      <point x="194" y="435" type="curve"/>
    </contour>
    <contour>
      <point x="861" y="214" type="curve"/>
      <point x="861" y="272" type="line"/>
      <point x="817" y="295"/>
      <point x="752" y="319"/>
      <point x="705" y="332" type="curve"/>
      <point x="697" y="328" type="line"/>
      <point x="697" y="244" type="line"/>
      <point x="732" y="240"/>
      <point x="781" y="232"/>
    </contour>
    <contour>
      <point x="382" y="557" type="line"/>
      <point x="465" y="557" type="line"/>
      <point x="471" y="609"/>
      <point x="480" y="654"/>
      <point x="497" y="724" type="curve"/>
      <point x="438" y="724" type="line"/>
      <point x="414" y="679"/>
      <point x="391" y="614"/>
      <point x="379" y="565" type="curve"/>
    </contour>
  </outline>
</glyph>
<glyph name="uni1ABA" format="2">
  <unicode hex="1ABA"/>
  <anchor x="-28" y="90" name="_bottom"/>
  <anchor x="-77" y="-240" name="bottom"/>
  <outline>
    <contour>
      <point x="-178" y="-175" type="line"/>
      <point x="-85" y="-175" type="line"/>
      <point x="51" y="40" type="line"/>
      <point x="-41" y="40" type="line"/>
    </contour>
    <contour>
      <point x="-129" y="-240" type="curve" smooth="yes"/>
      <point x="-79" y="-240"/>
      <point x="-51" y="-200"/>
      <point x="-51" y="-153" type="curve" smooth="yes"/>
      <point x="-51" y="-117"/>
      <point x="-69" y="-98"/>
      <point x="-109" y="-98" type="curve" smooth="yes"/>
      <point x="-161" y="-98"/>
      <point x="-188" y="-139"/>
      <point x="-188" y="-184" type="curve" smooth="yes"/>
      <point x="-188" y="-219"/>
      <point x="-168" y="-240"/>
    </contour>
  </outline>
</glyph>
<glyph name="uni1D24" format="2">
  <advance width="436"/>
  <unicode hex="1D24"/>
  <anchor x="172" y="0" name="bottom"/>
  <anchor x="331" y="760" name="top"/>
  <outline>
    <contour>
      <point x="181" y="-11" type="curve" smooth="yes"/>
      <point x="243" y="-11"/>
      <point x="303" y="12"/>
      <point x="345" y="49" type="curve"/>
      <point x="312" y="135" type="line"/>
      <point x="270" y="105"/>
      <point x="242" y="93"/>
      <point x="206" y="93" type="curve" smooth="yes"/>
      <point x="170" y="93"/>
      <point x="149" y="118"/>
      <point x="149" y="161" type="curve" smooth="yes"/>
      <point x="149" y="210"/>
      <point x="199" y="260"/>
      <point x="307" y="315" type="curve"/>
      <point x="324" y="402" type="line"/>
      <point x="441" y="464"/>
      <point x="494" y="532"/>
      <point x="494" y="623" type="curve" smooth="yes"/>
      <point x="494" y="706"/>
      <point x="435" y="765"/>
      <point x="332" y="765" type="curve" smooth="yes"/>
      <point x="271" y="765"/>
      <point x="210" y="742"/>
      <point x="169" y="705" type="curve"/>
      <point x="202" y="620" type="line"/>
      <point x="243" y="650"/>
      <point x="271" y="661"/>
      <point x="308" y="661" type="curve" smooth="yes"/>
      <point x="343" y="661"/>
      <point x="364" y="636"/>
      <point x="364" y="593" type="curve" smooth="yes"/>
      <point x="364" y="546"/>
      <point x="317" y="496"/>
      <point x="207" y="440" type="curve"/>
      <point x="188" y="352" type="line"/>
      <point x="70" y="290"/>
      <point x="20" y="221"/>
      <point x="20" y="132" type="curve" smooth="yes"/>
      <point x="20" y="48"/>
      <point x="78" y="-11"/>
    </contour>
  </outline>
</glyph>
<glyph name="uni1D7A" format="2">
  <advance width="736"/>
  <unicode hex="1D7A"/>
  <anchor x="117" y="0" name="bottom_1"/>
  <anchor x="459" y="0" name="bottom_2"/>
  <anchor x="125" y="273" name="center_1"/>
  <anchor x="521" y="265" name="center_2"/>
  <anchor x="204" y="661" name="top_1"/>
  <anchor x="502" y="760" name="top_2"/>
  <anchor x="312" y="860" name="topright_1"/>
  <anchor x="794" y="760" name="topright_2"/>
  <outline>
    <contour>
      <point x="-102" y="-81" type="line"/>
      <point x="10" y="-81" type="line"/>
      <point x="780" y="760" type="line"/>
      <point x="668" y="760" type="line"/>
    </contour>
    <component base="t"/>
    <component base="h" xOffset="291"/>
  </outline>
</glyph>
<glyph name="LL-middleWelsh" format="2">
  <advance width="608"/>
  <unicode hex="1EFA"/>
  <anchor x="380" y="0" name="bottom"/>
  <anchor x="453" y="714" name="top"/>
  <anchor x="378" y="357" name="center"/>
  <anchor x="624" y="714" name="topright"/>
  <outline>
    <contour>
      <point x="-1" y="0" type="line"/>
      <point x="124" y="0" type="line"/>
      <point x="274" y="714" type="line"/>
      <point x="149" y="714" type="line"/>
    </contour>
    <component base="L" xOffset="243"/>
  </outline>
</glyph>
<glyph name="uni1FCE" format="2">
  <advance width="415"/>
  <unicode hex="1FCE"/>
  <anchor x="266" y="530" name="_top"/>
  <anchor x="305" y="765" name="top"/>
  <outline>
    <contour>
      <point x="281" y="605" type="line"/>
      <point x="338" y="605" type="line"/>
      <point x="370" y="646"/>
      <point x="415" y="705"/>
      <point x="439" y="747" type="curve"/>
      <point x="439" y="757" type="line"/>
      <point x="339" y="757" type="line"/>
      <point x="322" y="709"/>
      <point x="296" y="651"/>
      <point x="281" y="617" type="curve"/>
    </contour>
    <contour>
      <point x="158" y="600" type="line"/>
      <point x="231" y="601"/>
      <point x="283" y="656"/>
      <point x="283" y="707" type="curve" smooth="yes"/>
      <point x="283" y="748"/>
      <point x="265" y="765"/>
      <point x="233" y="765" type="curve" smooth="yes"/>
      <point x="200" y="765"/>
      <point x="179" y="743"/>
      <point x="179" y="714" type="curve" smooth="yes"/>
      <point x="179" y="689"/>
      <point x="199" y="677"/>
      <point x="213" y="676" type="curve"/>
      <point x="208" y="651"/>
      <point x="185" y="638"/>
      <point x="166" y="635" type="curve"/>
    </contour>
  </outline>
</glyph>
<glyph name="uni1FFD" format="2">
  <advance width="417"/>
  <unicode hex="1FFD"/>
  <anchor x="279" y="530" name="_top"/>
  <anchor x="320" y="772" name="top"/>
  <outline>
    <contour>
      <point x="229" y="609" type="line"/>
      <point x="296" y="609" type="line"/>
      <point x="324" y="645"/>
      <point x="373" y="723"/>
      <point x="395" y="762" type="curve"/>
      <point x="397" y="772" type="line"/>
      <point x="289" y="772" type="line"/>
      <point x="280" y="740"/>
      <point x="248" y="655"/>
      <point x="232" y="621" type="curve"/>
    </contour>
  </outline>
</glyph>
<glyph name="uni1FFE" format="2">
  <advance width="416"/>
  <unicode hex="1FFE"/>
  <anchor x="244" y="530" name="_top"/>
  <anchor x="284" y="765" name="top"/>
  <outline>
    <contour>
      <point x="308" y="600" type="curve"/>
      <point x="316" y="637" type="line"/>
      <point x="296" y="640"/>
      <point x="280" y="650"/>
      <point x="280" y="669" type="curve" smooth="yes"/>
      <point x="280" y="672"/>
      <point x="280" y="675"/>
      <point x="281" y="677" type="curve"/>
      <point x="305" y="678"/>
      <point x="329" y="699"/>
      <point x="329" y="726" type="curve" smooth="yes"/>
      <point x="329" y="746"/>
      <point x="319" y="765"/>
      <point x="287" y="765" type="curve" smooth="yes"/>
      <point x="249" y="765"/>
      <point x="226" y="724"/>
      <point x="226" y="687" type="curve" smooth="yes"/>
      <point x="226" y="636"/>
      <point x="255" y="601"/>
    </contour>
  </outline>
</glyph>
<glyph name="plussuperior" format="2">
  <advance width="369"/>
  <unicode hex="207A"/>
  <outline>
    <contour>
      <point x="188" y="302" type="line"/>
      <point x="260" y="302" type="line"/>
      <point x="260" y="415" type="line"/>
      <point x="373" y="415" type="line"/>
      <point x="373" y="486" type="line"/>
      <point x="260" y="486" type="line"/>
      <point x="260" y="599" type="line"/>
      <point x="188" y="599" type="line"/>
      <point x="188" y="486" type="line"/>
      <point x="75" y="486" type="line"/>
      <point x="75" y="415" type="line"/>
      <point x="188" y="415" type="line"/>
    </contour>
  </outline>
</glyph>
<glyph name="parenleftsuperior" format="2">
  <advance width="200"/>
  <unicode hex="207D"/>
  <outline>
    <contour>
      <point x="106" y="218" type="curve"/>
      <point x="170" y="218" type="line"/>
      <point x="154" y="269"/>
      <point x="145" y="339"/>
      <point x="145" y="395" type="curve" smooth="yes"/>
      <point x="145" y="543"/>
      <point x="204" y="668"/>
      <point x="290" y="771" type="curve"/>
      <point x="220" y="771" type="line"/>
      <point x="124" y="665"/>
      <point x="72" y="541"/>
      <point x="72" y="399" type="curve" smooth="yes"/>
      <point x="72" y="338"/>
      <point x="84" y="265"/>
    </contour>
  </outline>
</glyph>
<glyph name="parenrightsuperior" format="2">
  <advance width="199"/>
  <unicode hex="207E"/>
  <outline>
    <contour>
      <point x="7" y="218" type="curve"/>
      <point x="78" y="218" type="line"/>
      <point x="173" y="325"/>
      <point x="224" y="449"/>
      <point x="224" y="591" type="curve" smooth="yes"/>
      <point x="224" y="654"/>
      <point x="212" y="723"/>
      <point x="189" y="771" type="curve"/>
      <point x="124" y="771" type="line"/>
      <point x="140" y="722"/>
      <point x="151" y="650"/>
      <point x="151" y="593" type="curve" smooth="yes"/>
      <point x="151" y="447"/>
      <point x="93" y="323"/>
    </contour>
  </outline>
</glyph>
<glyph name="uni20A5" format="2">
  <advance width="661"/>
  <unicode hex="20A5"/>
  <anchor x="273" y="0" name="bottom"/>
  <anchor x="389" y="545" name="top"/>
  <anchor x="699" y="545" name="topright"/>
  <outline>
    <contour>
      <point x="93" y="-110" type="line"/>
      <point x="151" y="-110" type="line"/>
      <point x="550" y="666" type="line"/>
      <point x="492" y="666" type="line"/>
    </contour>
    <component base="m"/>
  </outline>
</glyph>
<glyph name="uni2C66" format="2">
  <advance width="289"/>
  <unicode hex="2C66"/>
  <anchor x="73" y="-208" name="bottom"/>
  <anchor x="225" y="760" name="top"/>
  <anchor x="125" y="273" name="center"/>
  <anchor x="352" y="661" name="topright"/>
  <outline>
    <contour>
      <point x="30" y="-208" type="line"/>
      <point x="79" y="-208" type="line"/>
      <point x="378" y="760" type="line"/>
      <point x="329" y="760" type="line" smooth="yes"/>
    </contour>
    <component base="t"/>
  </outline>
</glyph>
<glyph name="uni2DF5" format="2">
  <unicode hex="2DF5"/>
  <anchor x="58" y="545" name="_top"/>
  <anchor x="119" y="838" name="top"/>
  <anchor x="284" y="838" name="topright"/>
  <outline>
    <contour>
      <point x="13" y="616" type="curve" smooth="yes"/>
      <point x="35" y="616"/>
      <point x="57" y="623"/>
      <point x="70" y="632" type="curve"/>
      <point x="71" y="673" type="line"/>
      <point x="54" y="663"/>
      <point x="39" y="658"/>
      <point x="28" y="658" type="curve" smooth="yes"/>
      <point x="13" y="658"/>
      <point x="6" y="669"/>
      <point x="6" y="691" type="curve" smooth="yes"/>
      <point x="6" y="727"/>
      <point x="22" y="797"/>
      <point x="75" y="797" type="curve" smooth="yes"/>
      <point x="147" y="797" type="line"/>
      <point x="105" y="620" type="line"/>
      <point x="159" y="620" type="line"/>
      <point x="201" y="797" type="line"/>
      <point x="250" y="797" type="line"/>
      <point x="261" y="838" type="line"/>
      <point x="69" y="838" type="line" smooth="yes"/>
      <point x="-20" y="838"/>
      <point x="-50" y="747"/>
      <point x="-50" y="684" type="curve" smooth="yes"/>
      <point x="-50" y="641"/>
      <point x="-28" y="616"/>
    </contour>
  </outline>
</glyph>
<glyph name="uniA655" format="2">
  <advance width="640"/>
  <unicode hex="A655"/>
  <anchor x="161" y="0" name="bottom"/>
  <anchor x="219" y="273" name="center"/>
  <anchor x="277" y="545" name="top"/>
  <anchor x="475" y="545" name="topright"/>
  <outline>
    <contour>
      <point x="392" y="332" type="line"/>
      <point x="370" y="230" type="line"/>
      <point x="463" y="230" type="line"/>
      <point x="414" y="0" type="line"/>
      <point x="534" y="0" type="line"/>
      <point x="650" y="545" type="line"/>
      <point x="530" y="545" type="line"/>
      <point x="485" y="332" type="line"/>
    </contour>
    <component base="o"/>
  </outline>
</glyph>
<glyph name="uniA657" format="2">
  <advance width="615"/>
  <unicode hex="A657"/>
  <anchor x="299" y="0" name="bottom"/>
  <anchor x="351" y="545" name="top"/>
  <outline>
    <contour>
      <point x="153" y="0" type="line"/>
      <point x="279" y="0" type="line"/>
      <point x="361" y="216" type="line"/>
      <point x="440" y="216" type="line"/>
      <point x="437" y="0" type="line"/>
      <point x="557" y="0" type="line"/>
      <point x="542" y="545" type="line"/>
      <point x="395" y="545" type="line"/>
    </contour>
    <contour>
      <point x="-7" y="0" type="line"/>
      <point x="113" y="0" type="line"/>
      <point x="159" y="216" type="line"/>
      <point x="302" y="216" type="line"/>
      <point x="325" y="313" type="line"/>
      <point x="180" y="313" type="line"/>
      <point x="229" y="545" type="line"/>
      <point x="109" y="545" type="line"/>
    </contour>
    <contour>
      <point x="395" y="306" type="line"/>
      <point x="420" y="379" type="line" smooth="yes"/>
      <point x="429" y="403"/>
      <point x="437" y="427"/>
      <point x="444" y="451" type="curve"/>
      <point x="450" y="451" type="line"/>
      <point x="446" y="422"/>
      <point x="443" y="375"/>
      <point x="442" y="354" type="curve" smooth="yes"/>
      <point x="440" y="306" type="line"/>
    </contour>
  </outline>
</glyph>
<glyph name="uniA664" format="2">
  <advance width="644"/>
  <unicode hex="A664"/>
  <anchor x="199" y="0" name="bottom"/>
  <anchor x="380" y="714" name="top"/>
  <outline>
    <contour>
      <point x="515" y="604" type="line"/>
      <point x="699" y="604" type="line"/>
      <point x="722" y="714" type="line"/>
      <point x="421" y="714" type="line"/>
    </contour>
    <component base="afii10029"/>
  </outline>
</glyph>
<glyph name="uniA665" format="2">
  <advance width="564"/>
  <unicode hex="A665"/>
  <anchor x="167" y="0" name="bottom"/>
  <anchor x="284" y="552" name="top"/>
  <outline>
    <contour>
      <point x="225" y="0" type="line"/>
      <point x="345" y="0" type="line"/>
      <point x="439" y="442" type="line"/>
      <point x="584" y="442" type="line"/>
      <point x="607" y="545" type="line"/>
      <point x="341" y="545" type="line"/>
    </contour>
    <component base="afii10077"/>
  </outline>
</glyph>
<glyph name="uniA667" format="2">
  <advance width="687"/>
  <unicode hex="A667"/>
  <anchor x="231" y="0" name="bottom"/>
  <anchor x="346" y="545" name="top"/>
  <outline>
    <contour>
      <point x="517" y="442" type="line"/>
      <point x="709" y="442" type="line"/>
      <point x="731" y="545" type="line"/>
      <point x="466" y="545" type="line"/>
    </contour>
    <component base="afii10078"/>
  </outline>
</glyph>
<glyph name="uniA671" format="2">
  <unicode hex="A671"/>
  <outline>
    <contour>
      <point x="-372" y="606" type="line"/>
      <point x="-274" y="606" type="line"/>
      <point x="-254" y="704" type="line"/>
      <point x="445" y="704" type="line"/>
      <point x="424" y="606" type="line"/>
      <point x="522" y="606" type="line"/>
      <point x="566" y="810" type="line"/>
      <point x="-329" y="810" type="line"/>
    </contour>
    <contour>
      <point x="-551" y="-289" type="line"/>
      <point x="343" y="-289" type="line"/>
      <point x="387" y="-85" type="line"/>
      <point x="288" y="-85" type="line"/>
      <point x="268" y="-183" type="line"/>
      <point x="-430" y="-183" type="line"/>
      <point x="-410" y="-85" type="line"/>
      <point x="-508" y="-85" type="line"/>
    </contour>
  </outline>
</glyph>
<glyph name="uniA672" format="2">
  <unicode hex="A672"/>
  <outline>
    <contour>
      <point x="38" y="583" type="line"/>
      <point x="102" y="583" type="line"/>
      <point x="128" y="709" type="line"/>
      <point x="239" y="709" type="line"/>
      <point x="253" y="775" type="line"/>
      <point x="142" y="775" type="line"/>
      <point x="169" y="902" type="line"/>
      <point x="105" y="902" type="line"/>
      <point x="78" y="775" type="line"/>
      <point x="-31" y="775" type="line"/>
      <point x="-45" y="709" type="line"/>
      <point x="65" y="709" type="line"/>
    </contour>
    <contour>
      <point x="-327" y="-383" type="line"/>
      <point x="-262" y="-383" type="line"/>
      <point x="-194" y="-60" type="line"/>
      <point x="-258" y="-60" type="line"/>
    </contour>
    <contour>
      <point x="-587" y="52" type="line"/>
      <point x="-302" y="52" type="line"/>
      <point x="-288" y="118" type="line"/>
      <point x="-573" y="118" type="line"/>
    </contour>
    <contour>
      <point x="-167" y="-383" type="line"/>
      <point x="-102" y="-383" type="line"/>
      <point x="-34" y="-60" type="line"/>
      <point x="-99" y="-60" type="line"/>
    </contour>
    <contour>
      <point x="-6" y="-383" type="line"/>
      <point x="59" y="-383" type="line"/>
      <point x="128" y="-60" type="line"/>
      <point x="62" y="-60" type="line"/>
    </contour>
    <contour>
      <point x="-548" y="237" type="line"/>
      <point x="-263" y="237" type="line"/>
      <point x="-248" y="303" type="line"/>
      <point x="-533" y="303" type="line"/>
    </contour>
    <contour>
      <point x="-508" y="422" type="line"/>
      <point x="-224" y="422" type="line"/>
      <point x="-209" y="488" type="line"/>
      <point x="-494" y="488" type="line"/>
    </contour>
    <contour>
      <point x="220" y="52" type="line"/>
      <point x="504" y="52" type="line"/>
      <point x="519" y="118" type="line"/>
      <point x="234" y="118" type="line"/>
    </contour>
    <contour>
      <point x="259" y="237" type="line"/>
      <point x="543" y="237" type="line"/>
      <point x="558" y="303" type="line"/>
      <point x="273" y="303" type="line"/>
    </contour>
    <contour>
      <point x="299" y="422" type="line"/>
      <point x="583" y="422" type="line"/>
      <point x="598" y="488" type="line"/>
      <point x="313" y="488" type="line"/>
    </contour>
  </outline>
</glyph>
<glyph name="uniA685" format="2">
  <advance width="779"/>
  <unicode hex="A685"/>
  <anchor x="111" y="0" name="bottom_1"/>
  <anchor x="515" y="0" name="bottom_2"/>
  <anchor x="216" y="545" name="top_1"/>
  <anchor x="630" y="545" name="top_2"/>
  <outline>
    <contour>
      <point x="214" y="238" type="line"/>
      <point x="423" y="238" type="line"/>
      <point x="442" y="326" type="line"/>
      <point x="233" y="326" type="line"/>
    </contour>
    <component base="afii10073"/>
    <component base="afii10076" xOffset="358"/>
  </outline>
</glyph>
<glyph name="uniA69E" format="2">
  <unicode hex="A69E"/>
  <outline>
    <contour>
      <point x="-70" y="119" type="line"/>
      <point x="11" y="119" type="line"/>
      <point x="42" y="268" type="line"/>
      <point x="160" y="276"/>
      <point x="226" y="361"/>
      <point x="226" y="481" type="curve" smooth="yes"/>
      <point x="226" y="561"/>
      <point x="187" y="609"/>
      <point x="117" y="620" type="curve"/>
      <point x="144" y="752" type="line"/>
      <point x="63" y="752" type="line"/>
      <point x="36" y="620" type="line"/>
      <point x="-78" y="611"/>
      <point x="-146" y="533"/>
      <point x="-146" y="409" type="curve" smooth="yes"/>
      <point x="-146" y="329"/>
      <point x="-109" y="279"/>
      <point x="-40" y="268" type="curve"/>
    </contour>
    <contour>
      <point x="-23" y="336" type="line"/>
      <point x="-47" y="340"/>
      <point x="-61" y="367"/>
      <point x="-61" y="412" type="curve" smooth="yes"/>
      <point x="-61" y="477"/>
      <point x="-32" y="548"/>
      <point x="20" y="552" type="curve"/>
    </contour>
    <contour>
      <point x="58" y="336" type="curve"/>
      <point x="101" y="552" type="line"/>
      <point x="125" y="548"/>
      <point x="140" y="520"/>
      <point x="140" y="477" type="curve" smooth="yes"/>
      <point x="140" y="416"/>
      <point x="111" y="340"/>
    </contour>
  </outline>
</glyph>
<glyph name="uniA73B" format="2">
  <advance width="640"/>
  <unicode hex="A73B"/>
  <anchor x="260" y="0" name="bottom"/>
  <anchor x="380" y="545" name="top"/>
  <outline>
    <contour>
      <point x="311" y="258" type="line"/>
      <point x="502" y="258" type="line"/>
      <point x="518" y="333" type="line"/>
      <point x="327" y="333" type="line"/>
    </contour>
    <component base="uniA739"/>
  </outline>
</glyph>
<glyph name="uniA743" format="2">
  <advance width="425"/>
  <unicode hex="A743"/>
  <anchor x="157" y="0" name="bottom"/>
  <anchor x="318" y="760" name="top"/>
  <anchor x="528" y="760" name="topright"/>
  <outline>
    <contour>
      <point x="182" y="71" type="line"/>
      <point x="403" y="134" type="line"/>
      <point x="386" y="195" type="line"/>
      <point x="164" y="132" type="line"/>
    </contour>
    <component base="k"/>
  </outline>
</glyph>
<glyph name="uniA751" format="2">
  <advance width="447"/>
  <unicode hex="A751"/>
  <anchor x="121" y="-236" name="bottom"/>
  <anchor x="283" y="530" name="top"/>
  <anchor x="485" y="545" name="topright"/>
  <outline>
    <contour>
      <point x="-91" y="-159" type="line"/>
      <point x="185" y="-159" type="line"/>
      <point x="204" y="-71" type="line"/>
      <point x="-72" y="-71" type="line"/>
    </contour>
    <component base="p"/>
  </outline>
</glyph>
<glyph name="uniA752" format="2">
  <advance width="562"/>
  <unicode hex="A752"/>
  <anchor x="288" y="0" name="bottom"/>
  <anchor x="429" y="714" name="top"/>
  <anchor x="638" y="714" name="topright"/>
  <outline>
    <contour>
      <point x="-17" y="149" type="curve"/>
      <point x="88" y="150" type="line"/>
      <point x="87" y="158"/>
      <point x="87" y="164"/>
      <point x="87" y="175" type="curve" smooth="yes"/>
      <point x="87" y="228"/>
      <point x="114" y="258"/>
      <point x="162" y="258" type="curve" smooth="yes"/>
      <point x="219" y="258" type="line"/>
      <point x="240" y="367" type="line"/>
      <point x="173" y="367" type="line" smooth="yes"/>
      <point x="53" y="367"/>
      <point x="-18" y="291"/>
      <point x="-18" y="176" type="curve" smooth="yes"/>
      <point x="-18" y="168"/>
      <point x="-17" y="157"/>
    </contour>
    <component base="P" xOffset="124"/>
  </outline>
</glyph>
<glyph name="uniA757" format="2">
  <advance width="448"/>
  <unicode hex="A757"/>
  <anchor x="230" y="-239" name="bottom"/>
  <anchor x="282" y="545" name="top"/>
  <anchor x="476" y="545" name="topright"/>
  <outline>
    <contour>
      <point x="92" y="-159" type="line"/>
      <point x="368" y="-159" type="line"/>
      <point x="387" y="-71" type="line"/>
      <point x="111" y="-71" type="line"/>
    </contour>
    <component base="q"/>
  </outline>
</glyph>
<glyph name="uniA75C" format="2">
  <advance width="592"/>
  <unicode hex="A75C"/>
  <outline>
    <contour>
      <point x="13" y="146" type="line"/>
      <point x="533" y="146" type="line"/>
      <point x="556" y="256" type="line"/>
      <point x="195" y="256" type="line"/>
      <point x="195" y="259" type="line"/>
      <point x="281" y="337" type="line" smooth="yes"/>
      <point x="388" y="434"/>
      <point x="422" y="496"/>
      <point x="422" y="580" type="curve" smooth="yes"/>
      <point x="422" y="667"/>
      <point x="363" y="724"/>
      <point x="277" y="724" type="curve" smooth="yes"/>
      <point x="208" y="724"/>
      <point x="150" y="695"/>
      <point x="95" y="633" type="curve"/>
      <point x="145" y="557" type="line"/>
      <point x="179" y="589"/>
      <point x="210" y="614"/>
      <point x="249" y="614" type="curve" smooth="yes"/>
      <point x="279" y="614"/>
      <point x="295" y="593"/>
      <point x="295" y="554" type="curve" smooth="yes"/>
      <point x="295" y="500"/>
      <point x="267" y="463"/>
      <point x="174" y="373" type="curve" smooth="yes"/>
      <point x="31" y="234" type="line"/>
    </contour>
    <contour>
      <point x="303" y="0" type="line"/>
      <point x="423" y="0" type="line"/>
      <point x="502" y="372" type="line"/>
      <point x="382" y="372" type="line"/>
    </contour>
  </outline>
</glyph>
<glyph name="uniA771" format="2">
  <advance width="627"/>
  <unicode hex="A771"/>
  <anchor x="150" y="0" name="bottom"/>
  <anchor x="211" y="265" name="center"/>
  <anchor x="321" y="760" name="top"/>
  <anchor x="515" y="760" name="topright"/>
  <outline>
    <contour>
      <point x="292" y="-157" type="line"/>
      <point x="378" y="-157" type="line"/>
      <point x="602" y="264" type="line"/>
      <point x="516" y="264" type="line"/>
    </contour>
    <contour>
      <point x="330.007" y="0" type="line"/>
      <point x="569" y="0" type="line"/>
      <point x="590" y="102" type="line"/>
      <point x="351" y="102" type="line"/>
    </contour>
    <component base="d"/>
  </outline>
</glyph>
<glyph name="uniA790" format="2">
  <advance width="552"/>
  <unicode hex="A790"/>
  <anchor x="222" y="0" name="bottom"/>
  <anchor x="373" y="714" name="top"/>
  <anchor x="629" y="714" name="topright"/>
  <outline>
    <contour>
      <point x="339" y="-207" type="line"/>
      <point x="461" y="-207" type="line"/>
      <point x="529" y="110" type="line"/>
      <point x="459" y="110" type="line"/>
      <point x="383" y="0" type="line"/>
    </contour>
    <component base="N"/>
  </outline>
</glyph>
<glyph name="uniA791" format="2">
  <advance width="475"/>
  <unicode hex="A791"/>
  <anchor x="165" y="0" name="bottom"/>
  <anchor x="281" y="545" name="top"/>
  <anchor x="483" y="545" name="topright"/>
  <outline>
    <contour>
      <point x="236" y="-195" type="line"/>
      <point x="353" y="-195" type="line"/>
      <point x="416" y="102" type="line"/>
      <point x="361" y="102" type="line"/>
      <point x="277" y="0" type="line"/>
    </contour>
    <component base="n"/>
  </outline>
</glyph>
<glyph name="uniA792" format="2">
  <advance width="424"/>
  <unicode hex="A792"/>
  <anchor x="190" y="0" name="bottom"/>
  <anchor x="342" y="714" name="top"/>
  <anchor x="501" y="714" name="topright"/>
  <outline>
    <contour>
      <point x="12" y="315" type="line"/>
      <point x="346" y="315" type="line"/>
      <point x="365" y="410" type="line"/>
      <point x="32" y="410" type="line"/>
    </contour>
    <component base="C"/>
  </outline>
</glyph>
<glyph name="uniA799" format="2">
  <advance width="268"/>
  <unicode hex="A799"/>
  <anchor x="-52" y="-240" name="bottom"/>
  <anchor x="290" y="765" name="top"/>
  <anchor x="395" y="765" name="topright"/>
  <outline>
    <contour>
      <point x="-2" y="217" type="line"/>
      <point x="247" y="217" type="line"/>
      <point x="268" y="319" type="line"/>
      <point x="19" y="319" type="line"/>
    </contour>
    <component base="f"/>
  </outline>
</glyph>
<glyph name="uniA7A5" format="2">
  <advance width="452"/>
  <unicode hex="A7A5"/>
  <anchor x="165" y="0" name="bottom"/>
  <anchor x="281" y="545" name="top"/>
  <anchor x="483" y="545" name="topright"/>
  <outline>
    <contour>
      <point x="-15" y="194" type="line"/>
      <point x="452" y="284" type="line"/>
      <point x="469" y="367" type="line"/>
      <point x="2" y="276" type="line"/>
    </contour>
    <component base="n"/>
  </outline>
</glyph>
<glyph name="uniA7AE" format="2">
  <advance width="292"/>
  <unicode hex="A7AE"/>
  <outline>
    <contour>
      <point x="-44" y="0" type="line"/>
      <point x="217" y="0" type="line"/>
      <point x="232" y="66" type="line"/>
      <point x="167" y="95" type="line"/>
      <point x="243" y="450" type="line"/>
      <point x="320" y="479" type="line"/>
      <point x="334" y="545" type="line"/>
      <point x="73" y="545" type="line"/>
      <point x="60" y="479" type="line"/>
      <point x="123" y="450" type="line"/>
      <point x="47" y="95" type="line"/>
      <point x="-30" y="66" type="line"/>
    </contour>
  </outline>
</glyph>
<glyph name="uniA7B9" format="2">
  <advance width="445"/>
  <unicode hex="A7B9"/>
  <anchor x="134" y="0" name="bottom"/>
  <anchor x="281" y="545" name="top"/>
  <anchor x="483" y="545" name="topright"/>
  <outline>
    <contour>
      <point x="51" y="-69" type="line"/>
      <point x="493" y="553" type="line"/>
      <point x="439" y="593" type="line"/>
      <point x="-5" y="-30" type="line"/>
    </contour>
    <component base="u"/>
  </outline>
</glyph>
<glyph name="uniA7C7" format="2">
  <advance width="497"/>
  <unicode hex="A7C7"/>
  <anchor x="194" y="0" name="bottom"/>
  <anchor x="281" y="357" name="center"/>
  <anchor x="335" y="714" name="top"/>
  <anchor x="574" y="714" name="topright"/>
  <outline>
    <contour>
      <point x="128" y="320" type="line"/>
      <point x="403" y="320" type="line"/>
      <point x="421" y="405" type="line"/>
      <point x="146" y="405" type="line"/>
    </contour>
    <component base="D"/>
  </outline>
</glyph>
<glyph name="uniA7C8" format="2">
  <advance width="448"/>
  <unicode hex="A7C8"/>
  <anchor x="150" y="0" name="bottom"/>
  <anchor x="211" y="265" name="center"/>
  <anchor x="321" y="760" name="top"/>
  <anchor x="515" y="760" name="topright"/>
  <outline>
    <contour>
      <point x="95" y="233" type="line"/>
      <point x="331" y="233" type="line"/>
      <point x="349" y="318" type="line"/>
      <point x="113" y="318" type="line"/>
    </contour>
    <component base="d"/>
  </outline>
</glyph>
<glyph name="uniA7CA" format="2">
  <advance width="347"/>
  <unicode hex="A7CA"/>
  <anchor x="116" y="0" name="bottom"/>
  <anchor x="232" y="545" name="top"/>
  <anchor x="375" y="545" name="topright"/>
  <outline>
    <contour>
      <point x="5" y="225" type="line"/>
      <point x="335" y="225" type="line"/>
      <point x="353" y="310" type="line"/>
      <point x="23" y="310" type="line"/>
    </contour>
    <component base="s"/>
  </outline>
</glyph>
<glyph name="uniA7FA" format="2">
  <advance width="666"/>
  <unicode hex="A7FA"/>
  <anchor x="273" y="0" name="bottom"/>
  <anchor x="389" y="545" name="top"/>
  <outline>
    <contour>
      <point x="-2" y="0" type="line"/>
      <point x="549" y="0" type="line"/>
      <point x="664" y="545" type="line"/>
      <point x="543" y="545" type="line"/>
      <point x="450" y="103" type="line"/>
      <point x="355" y="103" type="line"/>
      <point x="449" y="545" type="line"/>
      <point x="329" y="545" type="line"/>
      <point x="235" y="103" type="line"/>
      <point x="140" y="103" type="line"/>
      <point x="234" y="545" type="line"/>
      <point x="113" y="545" type="line"/>
    </contour>
  </outline>
</glyph>
<glyph name="uniA7FB" format="2">
  <advance width="370"/>
  <unicode hex="A7FB"/>
  <outline>
    <contour>
      <point x="127" y="0" type="line"/>
      <point x="252" y="0" type="line"/>
      <point x="405" y="714" type="line"/>
      <point x="117" y="714" type="line"/>
      <point x="93" y="605" type="line"/>
      <point x="256" y="605" type="line"/>
      <point x="213" y="399" type="line"/>
      <point x="61" y="399" type="line"/>
      <point x="38" y="290" type="line"/>
      <point x="189" y="290" type="line"/>
    </contour>
  </outline>
</glyph>
<glyph name="uniAB30" format="2">
  <advance width="468"/>
  <unicode hex="AB30"/>
  <anchor x="170" y="0" name="bottom"/>
  <anchor x="286" y="545" name="top"/>
  <anchor x="487" y="545" name="topright"/>
  <outline>
    <contour>
      <point x="-15" y="231" type="line"/>
      <point x="447" y="231" type="line"/>
      <point x="468" y="327" type="line"/>
      <point x="6" y="327" type="line"/>
    </contour>
    <component base="uni0251"/>
  </outline>
</glyph>
<glyph name="uniAB44" format="2">
  <advance width="765"/>
  <unicode hex="AB44"/>
  <anchor x="489" y="0" name="bottom"/>
  <anchor x="547" y="273" name="center"/>
  <anchor x="605" y="545" name="top"/>
  <anchor x="803" y="545" name="topright"/>
  <outline>
    <contour>
      <point x="400" y="-64" type="line"/>
      <point x="740" y="568" type="line"/>
      <point x="695" y="592" type="line"/>
      <point x="355" y="-40" type="line"/>
    </contour>
    <component base="uniAB43"/>
  </outline>
</glyph>
<glyph name="uniAB60" format="2">
  <advance width="627"/>
  <unicode hex="AB60"/>
  <outline>
    <contour>
      <point x="374" y="-10" type="curve" smooth="yes"/>
      <point x="497" y="-10"/>
      <point x="583" y="60"/>
      <point x="583" y="193" type="curve" smooth="yes"/>
      <point x="583" y="283"/>
      <point x="536" y="332"/>
      <point x="437" y="332" type="curve" smooth="yes"/>
      <point x="421" y="332"/>
      <point x="405" y="331"/>
      <point x="397" y="328" type="curve"/>
      <point x="442" y="545" type="line"/>
      <point x="322" y="545" type="line"/>
      <point x="246" y="191" type="line" smooth="yes"/>
      <point x="239" y="158"/>
      <point x="237" y="135"/>
      <point x="237" y="117" type="curve" smooth="yes"/>
      <point x="237" y="25"/>
      <point x="294" y="-10"/>
    </contour>
    <contour>
      <point x="-7" y="0" type="line"/>
      <point x="113" y="0" type="line"/>
      <point x="229" y="545" type="line"/>
      <point x="109" y="545" type="line"/>
    </contour>
    <contour>
      <point x="391" y="82" type="curve" smooth="yes"/>
      <point x="362" y="82"/>
      <point x="355" y="105"/>
      <point x="355" y="126" type="curve" smooth="yes"/>
      <point x="355" y="139"/>
      <point x="361" y="172"/>
      <point x="375" y="236" type="curve"/>
      <point x="388" y="238"/>
      <point x="401" y="240"/>
      <point x="413" y="240" type="curve" smooth="yes"/>
      <point x="444" y="240"/>
      <point x="459" y="222"/>
      <point x="459" y="184" type="curve" smooth="yes"/>
      <point x="459" y="129"/>
      <point x="432" y="82"/>
    </contour>
  </outline>
</glyph>
<glyph name="uniAB61" format="2">
  <advance width="620"/>
  <unicode hex="AB61"/>
  <anchor x="374" y="0" name="bottom"/>
  <anchor x="480" y="545" name="top"/>
  <anchor x="658" y="545" name="topright"/>
  <outline>
    <contour>
      <point x="-6" y="0" type="line"/>
      <point x="114" y="0" type="line"/>
      <point x="162" y="228" type="line"/>
      <point x="244" y="228" type="line"/>
      <point x="265" y="331" type="line"/>
      <point x="184" y="331" type="line"/>
      <point x="230" y="545" type="line"/>
      <point x="110" y="545" type="line"/>
    </contour>
    <component base="e" xOffset="204"/>
  </outline>
</glyph>
<glyph name="uniFE20" format="2">
  <unicode hex="FE20"/>
  <outline>
    <contour>
      <point x="-202" y="587" type="curve"/>
      <point x="-122" y="587" type="line"/>
      <point x="-85" y="657"/>
      <point x="-15" y="693"/>
      <point x="95" y="693" type="curve"/>
      <point x="95" y="782" type="line"/>
      <point x="-57" y="782"/>
      <point x="-154" y="717"/>
    </contour>
  </outline>
</glyph>
<glyph name="uniFE21" format="2">
  <unicode hex="FE21"/>
  <outline>
    <contour>
      <point x="310" y="586" type="curve"/>
      <point x="390" y="586" type="line"/>
      <point x="355" y="716"/>
      <point x="254" y="781"/>
      <point x="89" y="781" type="curve"/>
      <point x="89" y="692" type="line"/>
      <point x="201" y="692"/>
      <point x="274" y="659"/>
    </contour>
  </outline>
</glyph>
<glyph name="uniFE22" format="2">
  <unicode hex="FE22"/>
  <outline>
    <contour>
      <point x="-215" y="607" type="curve"/>
      <point x="-152" y="607" type="line"/>
      <point x="-143" y="647"/>
      <point x="-118" y="663"/>
      <point x="-78" y="663" type="curve" smooth="yes"/>
      <point x="-28" y="663"/>
      <point x="23" y="651"/>
      <point x="82" y="635" type="curve"/>
      <point x="83" y="725" type="line"/>
      <point x="33" y="740"/>
      <point x="-21" y="752"/>
      <point x="-84" y="752" type="curve" smooth="yes"/>
      <point x="-156" y="752"/>
      <point x="-208" y="706"/>
    </contour>
  </outline>
</glyph>
<glyph name="uniFE23" format="2">
  <unicode hex="FE23"/>
  <outline>
    <contour>
      <point x="245" y="608" type="curve" smooth="yes"/>
      <point x="313" y="608"/>
      <point x="371" y="654"/>
      <point x="378" y="752" type="curve"/>
      <point x="315" y="752" type="line"/>
      <point x="307" y="715"/>
      <point x="281" y="697"/>
      <point x="237" y="697" type="curve" smooth="yes"/>
      <point x="190" y="697"/>
      <point x="138" y="710"/>
      <point x="80" y="725" type="curve"/>
      <point x="80" y="635" type="line"/>
      <point x="131" y="621"/>
      <point x="186" y="608"/>
    </contour>
  </outline>
</glyph>
<glyph name="uniFE2E" format="2">
  <unicode hex="FE2E"/>
  <outline>
    <contour>
      <point x="-3" y="565" type="curve" smooth="yes"/>
      <point x="29" y="565"/>
      <point x="49" y="577"/>
      <point x="53" y="608" type="curve"/>
      <point x="214" y="608" type="line"/>
      <point x="214" y="696" type="line"/>
      <point x="11" y="696" type="line" smooth="yes"/>
      <point x="-39" y="696"/>
      <point x="-59" y="670"/>
      <point x="-59" y="628" type="curve" smooth="yes"/>
      <point x="-59" y="594"/>
      <point x="-40" y="565"/>
    </contour>
  </outline>
</glyph>
<glyph name="uniFE2F" format="2">
  <unicode hex="FE2F"/>
  <outline>
    <contour>
      <point x="-49" y="608" type="line"/>
      <point x="155" y="608" type="line" smooth="yes"/>
      <point x="212" y="608"/>
      <point x="225" y="640"/>
      <point x="225" y="677" type="curve" smooth="yes"/>
      <point x="225" y="717"/>
      <point x="207" y="739"/>
      <point x="168" y="739" type="curve" smooth="yes"/>
      <point x="138" y="739"/>
      <point x="116" y="724"/>
      <point x="113" y="696" type="curve"/>
      <point x="-49" y="696" type="line"/>
    </contour>
  </outline>
</glyph>
<glyph name="lslash.sc" format="2">
  <advance width="327"/>
  <anchor x="125" y="0" name="bottom"/>
  <anchor x="193" y="582" name="top"/>
  <anchor x="126" y="291" name="center"/>
  <anchor x="331" y="582" name="topright"/>
  <outline>
    <contour>
      <point x="22" y="178" type="line"/>
      <point x="326" y="390" type="line"/>
      <point x="278" y="457" type="line"/>
      <point x="-25" y="247" type="line"/>
    </contour>
    <component base="l.sc" xOffset="12"/>
  </outline>
</glyph>
